<svg xmlns="http://www.w3.org/2000/svg" viewBox="0 0 32 27">
  <style>
    path { fill: #B682FF; stroke:none; fill-rule:nonzero; fill-opacity:1 }
  </style>
  <path d="M 16.199219 27 C 16.066406 27 15.953125 27 15.816406 27 C 13.441406 26.933594 11.171875 25.863281 9.242188 24.523438 C 7.808594 23.503906 6.527344 22.300781 5.386719 20.960938 C 2.558594 17.710938 0.492188 13.691406 0.113281 10.695312 C -0.222656 8.0625 0.246094 5.675781 1.503906 3.792969 C 2.601562 2.15625 4.261719 0.929688 6.148438 0.363281 C 7.226562 0.046875 8.347656 -0.0664062 9.445312 0.0664062 C 10.457031 0.183594 11.464844 0.5 12.386719 0.953125 C 12.8125 1.179688 13.238281 1.429688 13.617188 1.703125 C 14.066406 2.019531 14.472656 2.382812 14.851562 2.792969 C 14.898438 2.839844 14.964844 2.90625 15.011719 2.953125 C 15.191406 3.132812 15.371094 3.316406 15.59375 3.40625 C 15.863281 3.519531 16.175781 3.496094 16.445312 3.382812 C 16.738281 3.246094 16.941406 3.019531 17.164062 2.792969 C 17.949219 2 18.871094 1.292969 19.878906 0.792969 C 20.800781 0.339844 21.808594 0.0664062 22.839844 0.0234375 C 23.3125 0 23.78125 0.0234375 24.253906 0.0664062 C 25.757812 0.203125 27.261719 0.816406 28.472656 1.75 C 29.660156 2.65625 30.625 3.882812 31.1875 5.289062 C 31.433594 5.902344 31.613281 6.539062 31.726562 7.175781 C 31.835938 7.925781 31.972656 8.8125 31.636719 9.492188 C 31.410156 9.945312 30.960938 10.265625 30.535156 10.515625 C 29.300781 11.195312 28.066406 11.875 26.835938 12.582031 C 25.578125 13.285156 24.34375 13.988281 23.085938 14.691406 C 22.011719 15.304688 20.933594 15.894531 19.855469 16.507812 C 19.363281 16.78125 18.871094 17.054688 18.398438 17.328125 C 16.199219 18.484375 14.652344 17.53125 13.933594 16.847656 C 13.886719 16.828125 13.867188 16.78125 13.820312 16.734375 L 12.339844 15.125 C 11.621094 14.328125 11.578125 13.101562 12.316406 12.332031 C 13.125 11.492188 14.425781 11.511719 15.210938 12.351562 L 16.46875 13.738281 C 16.492188 13.761719 16.535156 13.761719 16.558594 13.761719 L 27.730469 7.492188 C 27.753906 7.472656 27.777344 7.449219 27.777344 7.402344 C 27.28125 5.425781 25.53125 4.222656 23.851562 4.042969 C 22.996094 3.953125 22.144531 4.085938 21.382812 4.519531 C 20.730469 4.882812 20.214844 5.425781 19.675781 5.949219 C 18.578125 7.015625 17.074219 7.605469 15.546875 7.472656 C 14.808594 7.402344 14.066406 7.175781 13.417969 6.789062 C 12.722656 6.382812 12.25 5.8125 11.667969 5.269531 C 11.511719 5.109375 11.332031 4.972656 11.152344 4.835938 C 10.007812 4.085938 8.59375 3.816406 7.269531 4.199219 C 4.421875 5.0625 3.722656 7.855469 4.015625 10.171875 C 4.308594 12.351562 6.082031 15.714844 8.347656 18.324219 C 9.265625 19.394531 10.296875 20.371094 11.441406 21.210938 C 12.339844 21.867188 13.417969 22.527344 14.515625 22.777344 C 15.300781 22.957031 15.996094 23.070312 16.804688 22.933594 C 18.105469 22.707031 19.363281 22.117188 20.550781 21.574219 C 21.785156 21.003906 22.976562 20.347656 24.121094 19.621094 C 24.726562 19.234375 25.308594 18.800781 25.871094 18.394531 C 26.765625 17.734375 28.046875 17.894531 28.695312 18.824219 C 29.324219 19.710938 29.078125 20.960938 28.203125 21.617188 C 26.65625 22.800781 24.925781 23.796875 23.222656 24.683594 C 21.113281 25.796875 18.667969 26.976562 16.199219 27 Z M 16.199219 27 "/>
</svg>
