<?xml version="1.0" standalone="no"?>
<!DOCTYPE svg PUBLIC "-//W3C//DTD SVG 20010904//EN"
 "http://www.w3.org/TR/2001/REC-SVG-20010904/DTD/svg10.dtd">
<svg version="1.0" xmlns="http://www.w3.org/2000/svg"
 width="680.000000pt" height="680.000000pt" viewBox="0 0 680.000000 680.000000"
 preserveAspectRatio="xMidYMid meet">
<metadata>
Created by potrace 1.14, written by Peter Selinger 2001-2017
</metadata>
<g transform="translate(0.000000,680.000000) scale(0.100000,-0.100000)"
fill="#000000" stroke="none">
<path d="M1699 6216 c-2 -2 -31 -6 -64 -9 -285 -26 -566 -127 -822 -294 -32
-21 -60 -40 -63 -43 -3 -3 -33 -27 -66 -53 -34 -25 -97 -81 -141 -124 -66 -66
-102 -106 -193 -220 -14 -17 -82 -124 -101 -158 -90 -161 -180 -404 -204 -550
-3 -16 -10 -52 -15 -80 -17 -88 -23 -176 -24 -355 -1 -186 11 -350 31 -430 6
-24 8 -36 17 -90 3 -14 12 -52 21 -84 8 -33 17 -67 19 -75 2 -9 6 -23 9 -31 3
-8 22 -64 42 -125 20 -60 41 -114 46 -119 5 -6 9 -16 9 -24 0 -13 83 -209 117
-274 7 -15 12 -29 11 -30 -2 -2 6 -16 18 -33 18 -26 35 -59 38 -75 1 -3 14
-27 30 -55 16 -27 39 -68 51 -90 13 -22 32 -56 42 -75 24 -42 84 -141 95 -155
4 -5 44 -66 90 -135 45 -69 85 -127 88 -130 3 -3 22 -27 40 -55 19 -27 40 -56
47 -65 6 -8 35 -44 63 -80 28 -36 59 -75 68 -86 30 -38 106 -128 132 -155 14
-15 50 -55 80 -90 81 -92 253 -264 350 -349 47 -41 87 -77 90 -80 5 -5 107
-89 125 -103 6 -4 28 -21 50 -38 50 -39 253 -180 280 -195 11 -6 60 -34 109
-63 78 -45 267 -140 351 -175 17 -7 41 -18 55 -24 36 -17 257 -88 310 -100 25
-6 59 -14 75 -18 33 -8 43 -10 100 -19 99 -17 141 -19 305 -20 169 0 267 7
340 24 19 4 38 8 43 9 57 9 86 15 107 22 14 5 36 12 50 14 66 12 330 100 405
136 11 5 54 23 95 41 41 17 122 54 180 82 58 28 107 51 110 52 16 4 363 186
378 197 6 6 12 7 12 2 0 -5 4 -4 8 1 7 10 28 22 157 90 39 21 77 43 85 50 17
13 146 86 173 97 9 4 17 11 17 17 0 5 8 11 18 15 29 10 259 158 272 176 3 4
16 13 29 20 14 7 30 17 35 21 6 5 36 29 66 53 76 60 103 93 139 170 38 78 52
172 38 246 -17 84 -62 173 -114 222 -84 80 -211 125 -326 116 -67 -6 -177 -36
-177 -50 0 -4 -5 -8 -11 -8 -9 0 -77 -44 -114 -73 -5 -5 -48 -35 -95 -68 -47
-32 -90 -63 -96 -68 -5 -4 -21 -14 -35 -21 -13 -7 -26 -16 -29 -19 -3 -4 -70
-46 -150 -93 -140 -83 -196 -114 -289 -164 -24 -13 -51 -30 -59 -36 -8 -7 -17
-12 -19 -10 -2 1 -27 -10 -56 -25 -28 -15 -54 -28 -57 -28 -3 -1 -45 -21 -95
-44 -133 -63 -208 -96 -325 -146 -36 -15 -74 -31 -85 -36 -33 -14 -129 -51
-140 -54 -5 -1 -17 -5 -25 -8 -80 -30 -255 -73 -340 -83 -109 -13 -247 -4
-385 26 -27 6 -63 13 -79 16 -86 17 -394 151 -404 176 -2 4 -8 8 -13 8 -18 0
-205 128 -334 227 -128 99 -472 426 -550 524 -11 13 -43 51 -71 84 -305 360
-615 879 -743 1245 -13 36 -27 74 -31 85 -10 24 -40 138 -46 174 -3 14 -8 35
-11 46 -10 32 -12 61 -16 230 -4 172 7 279 43 400 11 39 22 78 25 87 8 37 86
182 128 241 64 89 182 201 247 234 19 10 37 21 40 24 13 17 179 84 248 100 81
19 114 22 232 23 142 0 188 -7 315 -49 146 -47 259 -115 370 -221 193 -183
245 -229 319 -277 44 -29 82 -52 85 -53 3 0 26 -9 51 -21 25 -11 59 -25 75
-31 43 -14 70 -23 72 -23 2 -1 26 -7 55 -14 70 -19 167 -29 266 -28 272 3 561
126 770 327 124 119 178 167 237 211 33 25 65 49 70 53 6 4 26 16 45 25 19 10
42 22 50 26 8 5 40 19 70 30 49 19 79 26 195 46 120 20 351 -10 465 -61 100
-45 130 -61 190 -100 94 -62 176 -138 240 -225 49 -67 119 -192 124 -223 1 -6
4 -16 8 -21 3 -6 9 -26 13 -45 5 -29 2 -39 -15 -55 -12 -11 -24 -19 -26 -17
-3 2 -53 -24 -113 -57 -59 -34 -113 -61 -119 -61 -7 0 -12 -3 -12 -7 0 -5 -10
-13 -23 -18 -51 -24 -132 -71 -135 -77 -2 -5 -7 -8 -11 -8 -4 0 -66 -31 -136
-70 -70 -38 -132 -70 -136 -70 -4 0 -9 -3 -11 -7 -1 -5 -25 -20 -53 -34 -27
-14 -71 -38 -97 -52 -67 -38 -132 -74 -208 -115 -36 -19 -116 -64 -177 -99
-62 -34 -115 -63 -117 -63 -3 0 -29 -14 -58 -31 -29 -18 -91 -52 -138 -77 -47
-25 -102 -56 -122 -69 -21 -13 -40 -23 -44 -23 -3 0 -36 -17 -72 -39 -37 -21
-98 -55 -137 -76 -159 -86 -361 -198 -380 -211 -27 -19 -55 -17 -74 5 -156
179 -291 314 -341 343 -210 121 -484 46 -589 -161 -89 -173 -51 -361 105 -526
31 -33 104 -111 162 -174 129 -139 161 -170 197 -196 16 -11 33 -24 40 -30 11
-10 31 -22 89 -54 56 -31 167 -67 239 -77 60 -8 182 -5 237 6 30 6 65 13 76
16 69 14 323 133 332 156 2 4 11 8 21 8 9 0 21 4 27 9 5 6 29 21 54 34 112 60
166 90 175 97 6 4 51 29 100 55 131 70 129 69 137 80 4 6 8 7 8 2 0 -4 12 0
26 9 28 19 64 39 134 75 25 12 47 25 50 28 3 3 20 14 38 23 72 38 188 101 197
108 6 4 42 24 80 45 39 21 104 57 145 80 41 23 107 59 145 80 90 49 307 169
365 203 25 14 45 24 45 21 0 -2 14 6 30 17 17 12 55 35 85 51 30 16 82 45 115
63 33 18 89 49 125 68 36 19 103 56 150 82 47 26 117 64 155 85 206 110 289
200 320 343 13 64 14 227 2 282 -4 14 -9 43 -11 65 -27 206 -133 498 -248 685
-31 50 -127 180 -157 213 -123 134 -271 267 -350 313 -17 10 -31 22 -31 26 0
4 -4 8 -9 8 -5 0 -38 17 -72 38 -98 58 -269 138 -312 146 -14 2 -34 9 -45 15
-10 5 -30 12 -43 15 -13 2 -51 11 -84 20 -174 45 -450 63 -645 44 -90 -10
-254 -46 -325 -72 -11 -5 -45 -17 -75 -28 -226 -85 -477 -253 -709 -477 -109
-105 -161 -135 -241 -135 -79 -1 -129 29 -253 149 -126 122 -158 151 -222 195
-27 19 -52 38 -55 41 -14 16 -194 117 -283 159 -150 70 -357 134 -502 155 -23
3 -52 8 -65 11 -30 6 -316 15 -321 10z"/>
</g>
</svg>
